<svg xmlns="http://www.w3.org/2000/svg" width="535" height="365"><g fill="none" fill-rule="evenodd" transform="translate(-16 -2)"><g fill="#46EB6A" transform="translate(478 116)"><rect width="1" height="75" x="1.286" opacity=".56" rx=".5"/><rect width="3" height="53.15" y="4.724" rx="1"/></g><g fill="#46EB6A" transform="translate(177 225)"><rect width="1" height="75" x="1.286" opacity=".56" rx=".5"/><rect width="3" height="53.15" y="4.724" rx="1"/></g><g fill="#46EB6A" transform="translate(509 120)"><rect width="1" height="115" x="1.286" opacity=".56" rx=".5"/><rect width="3" height="81.385" y="7.077" rx="1"/></g><g fill="#46EB6A" transform="translate(210 229)"><rect width="1" height="115" x="1.286" opacity=".56" rx=".5"/><rect width="3" height="81.385" y="7.077" rx="1"/></g><g fill="#46EB6A"><path d="M518.5 141c.118 0 .214.096.214.214v56.572a.214.214 0 0 1-.429 0v-56.572c0-.118.097-.214.215-.214z" opacity=".56"/><path d="M518 149.227h1a1 1 0 0 1 1 1v38.546a1 1 0 0 1-1 1h-1a1 1 0 0 1-1-1v-38.546a1 1 0 0 1 1-1z"/></g><g fill="#46EB6A"><path d="M218.5 249c.118 0 .214.096.214.214v56.572a.214.214 0 0 1-.429 0v-56.572c0-.118.097-.214.215-.214z" opacity=".56"/><path d="M218 257.227h1a1 1 0 0 1 1 1v38.546a1 1 0 0 1-1 1h-1a1 1 0 0 1-1-1v-38.546a1 1 0 0 1 1-1z"/></g><g fill="#FF6161"><path d="M531.5 118c.118 0 .214.096.214.214v66.572a.214.214 0 0 1-.429 0v-66.572c0-.118.097-.214.215-.214z" opacity=".56"/><path d="M531 127.487h1a1 1 0 0 1 1 1v45.433a1 1 0 0 1-1 1h-1a1 1 0 0 1-1-1v-45.433a1 1 0 0 1 1-1z"/></g><g fill="#46EB6A" transform="translate(230 220)"><path d="M1.5 0c.118 0 .214.096.214.214v40.572a.214.214 0 0 1-.429 0V.214A.216.216 0 0 1 1.5 0z" opacity=".56"/><rect width="3" height="29.116" y="5.942" rx="1"/></g><g fill="#FF6161" transform="translate(483 106)"><rect width="1" height="54" x="1.286" opacity=".56" rx=".5"/><rect width="3" height="31.2" y="12.6" rx="1"/></g><g fill="#FF6161" transform="translate(183 215)"><rect width="1" height="54" x="1.286" opacity=".56" rx=".5"/><rect width="3" height="31.2" y="12.6" rx="1"/></g><g fill="#FF6161"><path d="M524.5 106c.118 0 .214.096.214.214v80.572a.214.214 0 0 1-.429 0v-80.572c0-.118.097-.214.215-.214z" opacity=".56"/><path d="M524 125.059h1a1 1 0 0 1 1 1v45.051a1 1 0 0 1-1 1h-1a1 1 0 0 1-1-1v-45.05a1 1 0 0 1 1-1z"/></g><g fill="#FF6161"><path d="M224.5 215c.118 0 .214.096.214.214v80.572a.214.214 0 0 1-.429 0v-80.572c0-.118.097-.214.215-.214z" opacity=".56"/><path d="M224 234.059h1a1 1 0 0 1 1 1v45.051a1 1 0 0 1-1 1h-1a1 1 0 0 1-1-1v-45.05a1 1 0 0 1 1-1z"/></g><g fill="#FF6161"><path d="M491.5 106c.118 0 .214.096.214.214v25.572a.214.214 0 0 1-.429 0v-25.572c0-.118.097-.214.215-.214z" opacity=".56"/><path d="M491 112.047h1a1 1 0 0 1 1 1v13.116a1 1 0 0 1-1 1h-1a1 1 0 0 1-1-1v-13.116a1 1 0 0 1 1-1z"/></g><g fill="#FF6161"><path d="M192.5 215c.118 0 .214.096.214.214v25.572a.214.214 0 0 1-.429 0v-25.572c0-.118.097-.214.215-.214z" opacity=".56"/><path d="M192 221.047h1a1 1 0 0 1 1 1v13.116a1 1 0 0 1-1 1h-1a1 1 0 0 1-1-1v-13.116a1 1 0 0 1 1-1z"/></g><g fill="#FF6161"><path d="M497.5 111c.118 0 .214.096.214.214v35.572a.214.214 0 0 1-.429 0v-35.572c0-.118.097-.214.215-.214z" opacity=".56"/><path d="M497 119.4h1a1 1 0 0 1 1 1v19a1 1 0 0 1-1 1h-1a1 1 0 0 1-1-1v-19a1 1 0 0 1 1-1z"/></g><g fill="#FF6161"><path d="M197.5 220c.118 0 .214.096.214.214v35.572a.214.214 0 0 1-.429 0v-35.572c0-.118.097-.214.215-.214z" opacity=".56"/><path d="M197 228.4h1a1 1 0 0 1 1 1v19a1 1 0 0 1-1 1h-1a1 1 0 0 1-1-1v-19a1 1 0 0 1 1-1z"/></g><g fill="#FF6161" transform="translate(503 131)"><rect width="1" height="32" x="1.286" opacity=".56" rx=".5"/><path d="M1 5.143h1a1 1 0 0 1 1 1v11.143a1 1 0 0 1-1 1H1a1 1 0 0 1-1-1V6.143a1 1 0 0 1 1-1z"/></g><g fill="#FF6161" transform="translate(204 240)"><rect width="1" height="32" x="1.286" opacity=".56" rx=".5"/><path d="M1 5.143h1a1 1 0 0 1 1 1v11.143a1 1 0 0 1-1 1H1a1 1 0 0 1-1-1V6.143a1 1 0 0 1 1-1z"/></g><g fill="#46EB6A" transform="translate(419 167)"><rect width="1" height="75" x="1.286" opacity=".56" rx=".5"/><rect width="3" height="53.15" y="4.724" rx="1"/></g><g fill="#46EB6A" transform="translate(120 239)"><rect width="1" height="75" x="1.286" opacity=".56" rx=".5"/><rect width="3" height="53.15" y="4.724" rx="1"/></g><path fill="#46EB6A" d="M16 243h1a1 1 0 0 1 1 1v52a1 1 0 0 1-1 1h-1v-54z"/><g fill="#46EB6A" transform="translate(386 160)"><rect width="1" height="39" x="1.286" opacity=".56" rx=".5"/><rect width="3" height="13.8" y="8.4" rx="1"/></g><g fill="#46EB6A" transform="translate(93 264)"><rect width="1" height="39" x="1.286" opacity=".56" rx=".5"/><rect width="3" height="13.8" y="8.4" rx="1"/></g><g fill="#46EB6A"><path d="M413.5 197c.118 0 .214.096.214.214v43.572a.214.214 0 0 1-.429 0v-43.572c0-.118.097-.214.215-.214z" opacity=".56"/><path d="M413 199.973h1a1 1 0 0 1 1 1v28.919a1 1 0 0 1-1 1h-1a1 1 0 0 1-1-1v-28.919a1 1 0 0 1 1-1z"/></g><g fill="#46EB6A"><path d="M113.5 267c.118 0 .214.096.214.214v43.572a.214.214 0 0 1-.429 0v-43.572c0-.118.097-.214.215-.214z" opacity=".56"/><path d="M113 269.973h1a1 1 0 0 1 1 1v28.919a1 1 0 0 1-1 1h-1a1 1 0 0 1-1-1v-28.919a1 1 0 0 1 1-1z"/></g><g fill="#46EB6A"><path d="M407.5 189c.118 0 .214.096.214.214v44.572a.214.214 0 0 1-.429 0v-44.572c0-.118.097-.214.215-.214z" opacity=".56"/><path d="M407 220.974h1a1 1 0 0 1 1 1v8.065a1 1 0 0 1-1 1h-1a1 1 0 0 1-1-1v-8.065a1 1 0 0 1 1-1z"/></g><g fill="#46EB6A"><path d="M107.5 260c.118 0 .214.096.214.214v44.572a.214.214 0 0 1-.429 0v-44.572c0-.118.097-.214.215-.214z" opacity=".56"/><path d="M107 291.974h1a1 1 0 0 1 1 1v8.065a1 1 0 0 1-1 1h-1a1 1 0 0 1-1-1v-8.065a1 1 0 0 1 1-1z"/></g><g fill="#FF6161" transform="translate(451 130)"><rect width="1" height="115" x="1.286" opacity=".56" rx=".5"/><rect width="3" height="81.385" y="7.077" rx="1"/></g><g fill="#FF6161" transform="translate(152 239)"><rect width="1" height="115" x="1.286" opacity=".56" rx=".5"/><rect width="3" height="81.385" y="7.077" rx="1"/></g><g fill="#46EB6A" transform="translate(471 160)"><path d="M1.5 0c.118 0 .214.096.214.214v40.572a.214.214 0 0 1-.429 0V.214A.216.216 0 0 1 1.5 0z" opacity=".56"/><rect width="3" height="29.116" y="5.942" rx="1"/></g><g fill="#46EB6A" transform="translate(172 269)"><path d="M1.5 0c.118 0 .214.096.214.214v40.572a.214.214 0 0 1-.429 0V.214A.216.216 0 0 1 1.5 0z" opacity=".56"/><rect width="3" height="29.116" y="5.942" rx="1"/></g><g fill="#FF6161" transform="translate(425 152)"><rect width="1" height="54" x="1.286" opacity=".56" rx=".5"/><rect width="3" height="31.2" y="12.6" rx="1"/></g><g fill="#FF6161" transform="translate(125 261)"><rect width="1" height="54" x="1.286" opacity=".56" rx=".5"/><rect width="3" height="31.2" y="12.6" rx="1"/></g><g fill="#FF6161" transform="translate(393 152)"><rect width="1" height="54" x="1.286" opacity=".56" rx=".5"/><rect width="3" height="31.2" y="12.6" rx="1"/></g><g fill="#FF6161" transform="translate(100 257)"><rect width="1" height="54" x="1.286" opacity=".56" rx=".5"/><rect width="3" height="31.2" y="12.6" rx="1"/></g><g fill="#FF6161" transform="translate(399 181)"><rect width="1" height="54" x="1.286" opacity=".56" rx=".5"/><rect width="3" height="31.2" y="12.6" rx="1"/></g><g fill="#FF6161"><path d="M465.5 152c.118 0 .214.096.214.214v43.572a.214.214 0 0 1-.429 0v-43.572c0-.118.097-.214.215-.214z" opacity=".56"/><path d="M465 162.108h1a1 1 0 0 1 1 1v23.568a1 1 0 0 1-1 1h-1a1 1 0 0 1-1-1v-23.568a1 1 0 0 1 1-1z"/></g><g fill="#FF6161"><path d="M166.5 260c.118 0 .214.096.214.214v43.572a.214.214 0 0 1-.429 0v-43.572c0-.118.097-.214.215-.214z" opacity=".56"/><path d="M166 270.108h1a1 1 0 0 1 1 1v23.568a1 1 0 0 1-1 1h-1a1 1 0 0 1-1-1v-23.568a1 1 0 0 1 1-1z"/></g><g fill="#FF6161"><path d="M460.5 171c.118 0 .214.096.214.214v43.572a.214.214 0 0 1-.429 0v-43.572c0-.118.097-.214.215-.214z" opacity=".56"/><path d="M460 181.108h1a1 1 0 0 1 1 1v23.568a1 1 0 0 1-1 1h-1a1 1 0 0 1-1-1v-23.568a1 1 0 0 1 1-1z"/></g><g fill="#FF6161"><path d="M160.5 280c.118 0 .214.096.214.214v43.572a.214.214 0 0 1-.429 0v-43.572c0-.118.097-.214.215-.214z" opacity=".56"/><path d="M160 290.108h1a1 1 0 0 1 1 1v23.568a1 1 0 0 1-1 1h-1a1 1 0 0 1-1-1v-23.568a1 1 0 0 1 1-1z"/></g><g fill="#46EB6A"><path d="M432.5 167c.118 0 .214.096.214.214v25.572a.214.214 0 0 1-.429 0v-25.572c0-.118.097-.214.215-.214z" opacity=".56"/><path d="M432 173.047h1a1 1 0 0 1 1 1v13.116a1 1 0 0 1-1 1h-1a1 1 0 0 1-1-1v-13.116a1 1 0 0 1 1-1z"/></g><g fill="#46EB6A"><path d="M133.5 275c.118 0 .214.096.214.214v25.572a.214.214 0 0 1-.429 0v-25.572c0-.118.097-.214.215-.214z" opacity=".56"/><path d="M133 281.047h1a1 1 0 0 1 1 1v13.116a1 1 0 0 1-1 1h-1a1 1 0 0 1-1-1v-13.116a1 1 0 0 1 1-1z"/></g><g fill="#46EB6A"><path d="M439.5 149c.118 0 .214.096.214.214v35.572a.214.214 0 0 1-.429 0v-35.572c0-.118.097-.214.215-.214z" opacity=".56"/><path d="M439 157.4h1a1 1 0 0 1 1 1v19a1 1 0 0 1-1 1h-1a1 1 0 0 1-1-1v-19a1 1 0 0 1 1-1z"/></g><g fill="#46EB6A"><path d="M140.5 258c.118 0 .214.096.214.214v35.572a.214.214 0 0 1-.429 0v-35.572c0-.118.097-.214.215-.214z" opacity=".56"/><path d="M140 266.4h1a1 1 0 0 1 1 1v19a1 1 0 0 1-1 1h-1a1 1 0 0 1-1-1v-19a1 1 0 0 1 1-1z"/></g><g fill="#46EB6A" transform="translate(445 141)"><rect width="1" height="32" x="1.286" opacity=".56" rx=".5"/><path d="M1 5.143h1a1 1 0 0 1 1 1v11.143a1 1 0 0 1-1 1H1a1 1 0 0 1-1-1V6.143a1 1 0 0 1 1-1z"/></g><g fill="#46EB6A" transform="translate(146 250)"><rect width="1" height="32" x="1.286" opacity=".56" rx=".5"/><path d="M1 5.143h1a1 1 0 0 1 1 1v11.143a1 1 0 0 1-1 1H1a1 1 0 0 1-1-1V6.143a1 1 0 0 1 1-1z"/></g><g fill="#46EB6A" transform="translate(328 205)"><rect width="1" height="28" x="1.286" opacity=".56" rx=".5"/><rect width="3" height="19.833" y="1.75" rx="1"/></g><g fill="#46EB6A" transform="translate(34 247)"><rect width="1" height="28" x="1.286" opacity=".56" rx=".5"/><rect width="3" height="19.833" y="1.75" rx="1"/></g><g fill="#46EB6A" transform="translate(359 169)"><rect width="1" height="28" x="1.286" opacity=".56" rx=".5"/><rect width="3" height="19.833" y="1.75" rx="1"/></g><g fill="#46EB6A" transform="translate(67 271)"><rect width="1" height="28" x="1.286" opacity=".56" rx=".5"/><rect width="3" height="19.833" y="1.75" rx="1"/></g><g fill="#46EB6A" transform="translate(367 164)"><path d="M1.5 0c.118 0 .214.096.214.214v9.572a.214.214 0 1 1-.429 0V.214A.216.216 0 0 1 1.5 0z" opacity=".56"/><rect width="3" height="6.875" y="1.25" rx="1"/></g><g fill="#46EB6A" transform="translate(72 269)"><path d="M1.5 0c.118 0 .214.096.214.214v9.572a.214.214 0 1 1-.429 0V.214A.216.216 0 0 1 1.5 0z" opacity=".56"/><rect width="3" height="6.875" y="1.25" rx="1"/></g><g fill="#46EB6A" transform="translate(379 155)"><path d="M1.5 0c.118 0 .214.096.214.214v40.572a.214.214 0 0 1-.429 0V.214A.216.216 0 0 1 1.5 0z" opacity=".56"/><rect width="3" height="29.116" y="5.942" rx="1"/></g><g fill="#46EB6A" transform="translate(86 259)"><path d="M1.5 0c.118 0 .214.096.214.214v40.572a.214.214 0 0 1-.429 0V.214A.216.216 0 0 1 1.5 0z" opacity=".56"/><rect width="3" height="29.116" y="5.942" rx="1"/></g><g fill="#FF6161"><path d="M336.5 218c.118 0 .214.096.214.214v2.572a.214.214 0 1 1-.429 0v-2.572c0-.118.097-.214.215-.214z" opacity=".56"/><path d="M335.75 218.5h1.5a.75.75 0 0 1 0 1.5h-1.5a.75.75 0 0 1 0-1.5z"/></g><g fill="#FF6161"><path d="M42.5 260c.118 0 .214.096.214.214v2.572a.214.214 0 1 1-.429 0v-2.572c0-.118.097-.214.215-.214z" opacity=".56"/><path d="M41.75 260.5h1.5a.75.75 0 0 1 0 1.5h-1.5a.75.75 0 0 1 0-1.5z"/></g><g fill="#FF6161"><path d="M374.5 163c.118 0 .214.096.214.214v5.572a.214.214 0 1 1-.429 0v-5.572c0-.118.097-.214.215-.214z" opacity=".56"/><path d="M374 164.636h1a1 1 0 0 1 1 1v1.273a1 1 0 0 1-1 1h-1a1 1 0 0 1-1-1v-1.273a1 1 0 0 1 1-1z"/></g><g fill="#FF6161"><path d="M81.5 267c.118 0 .214.096.214.214v5.572a.214.214 0 1 1-.429 0v-5.572c0-.118.097-.214.215-.214z" opacity=".56"/><path d="M81 268.636h1a1 1 0 0 1 1 1v1.273a1 1 0 0 1-1 1h-1a1 1 0 0 1-1-1v-1.273a1 1 0 0 1 1-1z"/></g><g fill="#FF6161"><path d="M341.5 190c.118 0 .214.096.214.214v74.572a.214.214 0 0 1-.429 0v-74.572c0-.118.097-.214.215-.214z" opacity=".56"/><path d="M341 207.717h1a1 1 0 0 1 1 1v41.7a1 1 0 0 1-1 1h-1a1 1 0 0 1-1-1v-41.7a1 1 0 0 1 1-1z"/></g><g fill="#FF6161"><path d="M48.5 239c.118 0 .214.096.214.214v74.572a.214.214 0 0 1-.429 0v-74.572c0-.118.097-.214.215-.214z" opacity=".56"/><path d="M48 256.717h1a1 1 0 0 1 1 1v41.7a1 1 0 0 1-1 1h-1a1 1 0 0 1-1-1v-41.7a1 1 0 0 1 1-1z"/></g><g fill="#FF6161"><path d="M348.5 182c.118 0 .214.096.214.214v35.572a.214.214 0 0 1-.429 0v-35.572c0-.118.097-.214.215-.214z" opacity=".56"/><path d="M348 190.4h1a1 1 0 0 1 1 1v19a1 1 0 0 1-1 1h-1a1 1 0 0 1-1-1v-19a1 1 0 0 1 1-1z"/></g><g fill="#FF6161"><path d="M55.5 286c.118 0 .214.096.214.214v35.572a.214.214 0 0 1-.429 0v-35.572c0-.118.097-.214.215-.214z" opacity=".56"/><path d="M55 294.4h1a1 1 0 0 1 1 1v19a1 1 0 0 1-1 1h-1a1 1 0 0 1-1-1v-19a1 1 0 0 1 1-1z"/></g><g fill="#FF6161" transform="translate(354 173)"><rect width="1" height="32" x="1.286" opacity=".56" rx=".5"/><path d="M1 5.143h1a1 1 0 0 1 1 1v11.143a1 1 0 0 1-1 1H1a1 1 0 0 1-1-1V6.143a1 1 0 0 1 1-1z"/></g><g fill="#FF6161" transform="translate(60 278)"><rect width="1" height="32" x="1.286" opacity=".56" rx=".5"/><path d="M1 5.143h1a1 1 0 0 1 1 1v11.143a1 1 0 0 1-1 1H1a1 1 0 0 1-1-1V6.143a1 1 0 0 1 1-1z"/></g><g fill="#46EB6A" transform="translate(269 233)"><rect width="1" height="75" x="1.286" opacity=".56" rx=".5"/><rect width="3" height="53.15" y="4.724" rx="1"/></g><g fill="#46EB6A" transform="translate(236 241)"><rect width="1" height="45" x="1.286" opacity=".56" rx=".5"/><path d="M1 2.96h1a1 1 0 0 1 1 1v29.974a1 1 0 0 1-1 1H1a1 1 0 0 1-1-1V3.961a1 1 0 0 1 1-1z"/></g><g fill="#46EB6A"><path d="M263.5 271c.118 0 .214.096.214.214v43.572a.214.214 0 0 1-.429 0v-43.572c0-.118.097-.214.215-.214z" opacity=".56"/><path d="M263 273.973h1a1 1 0 0 1 1 1v28.919a1 1 0 0 1-1 1h-1a1 1 0 0 1-1-1v-28.919a1 1 0 0 1 1-1z"/></g><g fill="#46EB6A"><path d="M257.5 255c.118 0 .214.096.214.214v44.572a.214.214 0 0 1-.429 0v-44.572c0-.118.097-.214.215-.214z" opacity=".56"/><path d="M257 286.974h1a1 1 0 0 1 1 1v8.065a1 1 0 0 1-1 1h-1a1 1 0 0 1-1-1v-8.065a1 1 0 0 1 1-1z"/></g><g fill="#46EB6A" transform="translate(302 207)"><rect width="1" height="81" x="1.286" opacity=".56" rx=".5"/><path d="M1 4.765h1a1 1 0 0 1 1 1V60.94a1 1 0 0 1-1 1H1a1 1 0 0 1-1-1V5.765a1 1 0 0 1 1-1z"/></g><g fill="#46EB6A" transform="translate(320 219)"><rect width="1" height="20" x="1.286" opacity=".56" rx=".5"/><path d="M1 4h1a1 1 0 0 1 1 1v2.571a1 1 0 0 1-1 1H1a1 1 0 0 1-1-1V5a1 1 0 0 1 1-1z"/></g><g fill="#46EB6A" transform="translate(28 263)"><rect width="1" height="20" x="1.286" opacity=".56" rx=".5"/><path d="M1 4h1a1 1 0 0 1 1 1v2.571a1 1 0 0 1-1 1H1a1 1 0 0 1-1-1V5a1 1 0 0 1 1-1z"/></g><g fill="#FF6161" transform="translate(276 215)"><rect width="1" height="54" x="1.286" opacity=".56" rx=".5"/><rect width="3" height="31.2" y="12.6" rx="1"/></g><g fill="#FF6161" transform="translate(243 252)"><path d="M1.5 0c.118 0 .214.096.214.214v25.572a.214.214 0 0 1-.429 0V.214A.216.216 0 0 1 1.5 0z" opacity=".56"/><rect width="3" height="15.116" y="6.047" rx="1"/></g><g fill="#FF6161" transform="translate(249 247)"><rect width="1" height="54" x="1.286" opacity=".56" rx=".5"/><rect width="3" height="31.2" y="12.6" rx="1"/></g><g fill="#FF6161"><path d="M315.5 209c.118 0 .214.096.214.214v43.572a.214.214 0 0 1-.429 0v-43.572c0-.118.097-.214.215-.214z" opacity=".56"/><path d="M315 219.108h1a1 1 0 0 1 1 1v23.568a1 1 0 0 1-1 1h-1a1 1 0 0 1-1-1v-23.568a1 1 0 0 1 1-1z"/></g><g fill="#FF6161"><path d="M23.5 251c.118 0 .214.096.214.214v43.572a.214.214 0 0 1-.429 0v-43.572c0-.118.097-.214.215-.214z" opacity=".56"/><path d="M23 261.108h1a1 1 0 0 1 1 1v23.568a1 1 0 0 1-1 1h-1a1 1 0 0 1-1-1v-23.568a1 1 0 0 1 1-1z"/></g><g fill="#FF6161"><path d="M309.5 213c.118 0 .214.096.214.214v43.572a.214.214 0 0 1-.429 0v-43.572c0-.118.097-.214.215-.214z" opacity=".56"/><path d="M309 223.108h1a1 1 0 0 1 1 1v23.568a1 1 0 0 1-1 1h-1a1 1 0 0 1-1-1v-23.568a1 1 0 0 1 1-1z"/></g><g fill="#46EB6A"><path d="M284.5 209c.118 0 .214.096.214.214v25.572a.214.214 0 0 1-.429 0v-25.572c0-.118.097-.214.215-.214z" opacity=".56"/><path d="M284 215.047h1a1 1 0 0 1 1 1v13.116a1 1 0 0 1-1 1h-1a1 1 0 0 1-1-1v-13.116a1 1 0 0 1 1-1z"/></g><g fill="#46EB6A"><path d="M289.5 191c.118 0 .214.096.214.214v35.572a.214.214 0 0 1-.429 0v-35.572c0-.118.097-.214.215-.214z" opacity=".56"/><path d="M289 199.4h1a1 1 0 0 1 1 1v19a1 1 0 0 1-1 1h-1a1 1 0 0 1-1-1v-19a1 1 0 0 1 1-1z"/></g><g fill="#FF6161" transform="translate(295 216)"><rect width="1" height="32" x="1.286" opacity=".56" rx=".5"/><path d="M1 5.143h1a1 1 0 0 1 1 1v11.143a1 1 0 0 1-1 1H1a1 1 0 0 1-1-1V6.143a1 1 0 0 1 1-1z"/></g><text fill="#8C94A0" font-family="ProximaNova-Regular, Proxima Nova" font-size="10" opacity=".4"><tspan x="230.15" y="363.945">Nov</tspan></text><path stroke="#8C94A0" stroke-dasharray="1,4" d="M239.571 77.258v277.1" opacity=".4"/><text fill="#8C94A0" font-family="ProximaNova-Regular, Proxima Nova" font-size="10" opacity=".4"><tspan x="61.35" y="363.945">16</tspan></text><path stroke="#8C94A0" stroke-dasharray="1,4" d="M66.571 77.258v277.1M19.857 31H550" opacity=".4"/><text fill="#8C94A0" font-family="ProximaNova-Regular, Proxima Nova" font-size="10" opacity=".4"><tspan x="410.35" y="363.945">16</tspan></text><path stroke="#8C94A0" stroke-dasharray="1,4" d="M415.571 77.258v277.1" opacity=".4"/><text fill="#8C94A0" font-family="ProximaNova-Regular, Proxima Nova" font-size="10" opacity=".4"><tspan x="324.095" y="363.945">8</tspan></text><path stroke="#8C94A0" stroke-dasharray="1,4" d="M327.571 77.258v277.1" opacity=".4"/><text fill="#8C94A0" font-family="ProximaNova-Regular, Proxima Nova" font-size="10" opacity=".4"><tspan x="146.27" y="363.945">24</tspan></text><path stroke="#8C94A0" stroke-dasharray="1,4" d="M152.571 77.258v277.1" opacity=".4"/><text fill="#8C94A0" font-family="ProximaNova-Regular, Proxima Nova" font-size="10" opacity=".4"><tspan x="495.27" y="363.945">24</tspan></text><path stroke="#8C94A0" stroke-dasharray="1,4" d="M501.571 77.258v277.1" opacity=".4"/><text fill="#8C94A0" font-family="ProximaNova-Regular, Proxima Nova" font-size="10" opacity=".4"><tspan x="280.21" y="363.945">4</tspan></text><path stroke="#8C94A0" stroke-dasharray="1,4" d="M283.571 77.258v277.1" opacity=".4"/><text fill="#8C94A0" font-family="ProximaNova-Regular, Proxima Nova" font-size="10" opacity=".4"><tspan x="103" y="363.945">20</tspan></text><path stroke="#8C94A0" stroke-dasharray="1,4" d="M109.571 77.258v277.1" opacity=".4"/><text fill="#8C94A0" font-family="ProximaNova-Regular, Proxima Nova" font-size="10" opacity=".4"><tspan x="452" y="363.945">20</tspan></text><path stroke="#8C94A0" stroke-dasharray="1,4" d="M458.571 77.258v277.1" opacity=".4"/><text fill="#8C94A0" font-family="ProximaNova-Regular, Proxima Nova" font-size="10" opacity=".4"><tspan x="17.365" y="363.945">12</tspan></text><path stroke="#8C94A0" stroke-dasharray="1,4" d="M22.571 77.258v277.1" opacity=".4"/><text fill="#8C94A0" font-family="ProximaNova-Regular, Proxima Nova" font-size="10" opacity=".4"><tspan x="366.365" y="363.945">12</tspan></text><path stroke="#8C94A0" stroke-dasharray="1,4" d="M371.571 77.258v277.1" opacity=".4"/><text fill="#8C94A0" font-family="ProximaNova-Regular, Proxima Nova" font-size="10" opacity=".4"><tspan x="190.155" y="363.945">28</tspan></text><path stroke="#8C94A0" stroke-dasharray="1,4" d="M196.571 77.258v277.1" opacity=".4"/><text fill="#8C94A0" font-family="ProximaNova-Regular, Proxima Nova" font-size="10" opacity=".4"><tspan x="539.155" y="363.945">28</tspan></text><text fill="#8C94A0" font-family="ProximaNova-Regular, Proxima Nova" font-size="10" opacity=".4"><tspan x="230.15" y="57.5">Nov</tspan></text><text fill="#8C94A0" font-family="ProximaNova-Regular, Proxima Nova" font-size="10" opacity=".4"><tspan x="61.35" y="57.5">16</tspan></text><text fill="#8C94A0" font-family="ProximaNova-Regular, Proxima Nova" font-size="10" opacity=".4"><tspan x="410.35" y="57.5">16</tspan></text><text fill="#8C94A0" font-family="ProximaNova-Regular, Proxima Nova" font-size="10" opacity=".4"><tspan x="324.095" y="57.5">8</tspan></text><text fill="#8C94A0" font-family="ProximaNova-Regular, Proxima Nova" font-size="10" opacity=".4"><tspan x="146.27" y="57.5">24</tspan></text><text fill="#8C94A0" font-family="ProximaNova-Regular, Proxima Nova" font-size="10" opacity=".4"><tspan x="495.27" y="57.5">24</tspan></text><text fill="#8C94A0" font-family="ProximaNova-Regular, Proxima Nova" font-size="10" opacity=".4"><tspan x="280.21" y="57.5">4</tspan></text><text fill="#8C94A0" font-family="ProximaNova-Regular, Proxima Nova" font-size="10" opacity=".4"><tspan x="103" y="57.5">20</tspan></text><text fill="#8C94A0" font-family="ProximaNova-Regular, Proxima Nova" font-size="10" opacity=".4"><tspan x="452" y="57.5">20</tspan></text><text fill="#8C94A0" font-family="ProximaNova-Regular, Proxima Nova" font-size="10" opacity=".4"><tspan x="17.365" y="57.5">12</tspan></text><text fill="#8C94A0" font-family="ProximaNova-Regular, Proxima Nova" font-size="10" opacity=".4"><tspan x="366.365" y="57.5">12</tspan></text><text fill="#8C94A0" font-family="ProximaNova-Regular, Proxima Nova" font-size="10" opacity=".4"><tspan x="190.155" y="57.5">28</tspan></text><text fill="#8C94A0" font-family="ProximaNova-Regular, Proxima Nova" font-size="10" opacity=".4"><tspan x="539.155" y="57.5">28</tspan></text><path stroke="#8C94A0" stroke-dasharray="1,4" d="M545.571 77.258v277.1" opacity=".4"/><text font-family="ProximaNova-Regular, Proxima Nova" font-size="10" opacity=".4"><tspan x="16" y="11" fill="#FFF">O</tspan> <tspan x="23.65" y="11" fill="#F5F6F7"> </tspan> <tspan x="26.23" y="11" fill="#FF6161">6,617.810</tspan> <tspan x="66.51" y="11" fill="#FFF"> H </tspan> <tspan x="81.37" y="11" fill="#FF6161">6,620.295 </tspan> <tspan x="132.64" y="11" fill="#FFF">L</tspan> <tspan x="137.74" y="11" fill="#FF6161"> 649.350</tspan> <tspan x="177.61" y="11" fill="#FFF"> C </tspan> <tspan x="192.11" y="11" fill="#FF6161">653.120</tspan></text><text fill="#FFF" font-family="ProximaNova-Regular, Proxima Nova" font-size="10" opacity=".4"><tspan x="487.47" y="9">Market open</tspan></text><circle cx="476" cy="6" r="3" fill="#13B72A" opacity=".4"/></g></svg>