<svg xmlns="http://www.w3.org/2000/svg" width="41" height="41"><path d="M13.12 0C5.871 0 0 5.871 0 13.12c0 7.249 5.871 13.12 13.12 13.12a12.9 12.9 0 0 0 1.768-.102c-.077.573-.128 1.15-.128 1.742 0 7.236 5.884 13.12 13.12 13.12C35.116 41 41 35.116 41 27.88c0-7.236-5.884-13.12-13.12-13.12-.593 0-1.17.051-1.742.128a12.9 12.9 0 0 0 .102-1.768C26.24 5.871 20.369 0 13.12 0zm19.91.23l-4.1 4.1-.563.59.564.59 4.1 4.1 1.178-1.18-2.69-2.69h3.741c2.258 0 4.1 1.842 4.1 4.1v4.92H41V9.84c0-3.152-2.588-5.74-5.74-5.74h-3.741l2.69-2.69L33.031.23zM13.12 1.64c6.365 0 11.48 5.115 11.48 11.48 0 .772-.06 1.454-.205 2.127a13.143 13.143 0 0 0-9.148 9.148 9.967 9.967 0 0 1-2.127.205A11.449 11.449 0 0 1 1.64 13.12c0-6.365 5.115-11.48 11.48-11.48zm.897 4.843c-1.477 0-2.607.477-3.51 1.46-.82.904-1.314 2.06-1.64 3.537h-1l-.487 1.076h1.307v.897h-.82l-.487 1.05h1.384c.573 3.527 2.3 5.254 5.253 5.254 1.067 0 1.973-.327 2.793-.82v-1.87c-.493.493-.903.81-1.23.973-.493.247-.99.333-1.563.333-1.887 0-3.024-1.323-3.434-3.946h3.92l.513-1.05h-4.51v-.923h4.74l.488-1.05h-5.15c.162-1.068.48-1.804.973-2.46.573-.738 1.326-1.154 2.23-1.154.903 0 1.793.41 2.613 1.23l.897-1.384c-1.067-.736-2.213-1.153-3.28-1.153zM27.88 16.4a11.47 11.47 0 0 1 11.48 11.48 11.47 11.47 0 0 1-11.48 11.48A11.47 11.47 0 0 1 16.4 27.88 11.47 11.47 0 0 1 27.88 16.4zm-.333 3.434v1.23c-.493 0-.967.17-1.46.333-.494.247-.904.493-1.23.82-.327.41-.657.737-.82 1.23-.247.41-.334.913-.334 1.486s.067.974.23 1.384c.084.41.34.753.667 1 .327.246.66.477 1.153.64.41.163.983.323 1.64.487v4.843c-.737-.163-1.326-.404-1.82-.897-.41-.41-.723-1.07-.64-1.973H23.37c.083 1.313.493 2.313 1.23 3.05.657.736 1.64 1.223 2.87 1.306v1.46h.974v-1.46c.656 0 1.146-.17 1.64-.333.493-.247.903-.493 1.23-.82.326-.327.656-.737.82-1.23.246-.41.333-.99.333-1.563s-.087-1.05-.333-1.46c-.164-.41-.391-.753-.718-1-.326-.327-.672-.477-1-.64a5.89 5.89 0 0 0-.82-.334l-1.05-.333v-4.51c1.147.247 1.804.897 2.05 2.127h1.538c-.247-1.067-.657-1.964-1.23-2.537a3.741 3.741 0 0 0-2.358-1.076v-1.23h-1zm-.154 2.793v4.28c-.247-.084-.573-.25-.82-.334-.247-.163-.503-.247-.666-.41-.163-.163-.327-.343-.41-.59a2.412 2.412 0 0 1-.154-.82c0-.656.154-1.21.564-1.537.41-.41.993-.59 1.486-.59zM0 26.24v4.92c0 3.152 2.588 5.74 5.74 5.74h3.741l-2.69 2.69 1.178 1.18 4.1-4.1.564-.59-.564-.59-4.1-4.1-1.178 1.18 2.69 2.69H5.74a4.108 4.108 0 0 1-4.1-4.1v-4.92H0zm28.444 2.537c.326.083.596.25.922.333.247.083.471.247.718.41.246.163.429.317.512.564.084.246.154.596.154.922 0 .327-.07.727-.154.974-.083.327-.266.58-.512.743-.164.163-.471.327-.718.41-.246.083-.596.147-.922.23v-4.586z"/></svg>