<svg xmlns="http://www.w3.org/2000/svg" width="50" height="32"><path fill="#0388EF" d="M17.361 0c-1.117 0-2.105.558-2.742 1.403a6.138 6.138 0 0 0-1.609-.59 4.813 4.813 0 0 0-2.105.043c-1.418.341-2.834 1.266-4.554 2.725C4.403 5.233.25 8.78.25 8.78a.725.725 0 0 0-.09 1.002.683.683 0 0 0 .98.092s4.156-3.55 6.098-5.197c1.65-1.4 2.921-2.18 3.987-2.442.95-.228 1.78-.08 2.78.456a3.53 3.53 0 0 0-.116.864V18.1l-1.885.911a.714.714 0 0 0-.407.586.723.723 0 0 0 .298.65.687.687 0 0 0 .703.05l12.272-5.93-.344-.353c.211.217.528.27.797.139.583-.292 1.24-.642 1.76-.642 1.541 0 2.778 1.267 2.778 2.845 0 .9-.412 1.686-1.055 2.21a.726.726 0 0 0-.138.962l-.385-.514-11.413 9.005A11.487 11.487 0 0 1 9.755 30.5H1.39a.695.695 0 0 0-.61.353.733.733 0 0 0 0 .716c.127.223.36.356.61.353h8.366c2.507 0 4.95-.741 7.048-2.12a3.78 3.78 0 0 0 2.989 1.487c1.188 0 2.091-.783 2.718-1.47.049-.055.033-.055.081-.11C23.196 31.05 24.51 32 26.041 32c1.18 0 2.098-.608 2.681-1.356.277-.355.35-.73.524-1.11.52.544 1.386 1.044 2.674 1.044a3.828 3.828 0 0 0 2.659-1.075c.702-.67 1.196-1.584 1.502-2.634l.006-.01.732-2.681h9.709c1.91 0 3.472-1.6 3.472-3.556V3.556C50 1.6 48.438 0 46.528 0H17.36zm0 1.422h29.167c1.158 0 2.083.947 2.083 2.134v1.422H15.278V3.556c0-1.187.925-2.134 2.083-2.134zm-2.083 6.4h33.333v12.8c0 1.186-.925 2.134-2.083 2.134H25.817l3.863-3.048a.7.7 0 0 0 .23-.327c.79-.773 1.34-1.814 1.34-3.025 0-2.348-1.874-4.267-4.166-4.267-1.015 0-1.829.511-2.33.764l-.033.014-9.443 4.564V7.822zm3.472 1.422a.704.704 0 0 0-.694.712c0 .391.312.71.694.71a.704.704 0 0 0 .695-.71.704.704 0 0 0-.695-.712zm2.778 0a.704.704 0 0 0-.694.712c0 .391.312.71.694.71a.703.703 0 0 0 .694-.71.704.704 0 0 0-.694-.712zm2.778 0a.704.704 0 0 0-.695.712c0 .391.312.71.695.71a.704.704 0 0 0 .694-.71.704.704 0 0 0-.694-.712zm2.778 0a.704.704 0 0 0-.695.712c0 .391.312.71.695.71a.704.704 0 0 0 .694-.71.704.704 0 0 0-.694-.712zM25 15.644a.704.704 0 0 0-.694.712c0 .391.312.71.694.71a.704.704 0 0 0 .695-.71.704.704 0 0 0-.695-.712zm1.39 2.134a.704.704 0 0 0-.695.71c0 .393.312.712.694.712.383 0 .695-.32.695-.711a.704.704 0 0 0-.695-.711zm-2.377 6.4h11.363l-.624 2.289c-.252.858-.645 1.544-1.12 1.997-.475.453-1.017.692-1.712.692-1.017 0-1.478-.342-1.752-.656-.274-.311-.323-.564-.323-.564l-1.343-.047c-.187.636-.466 1.355-.865 1.867-.399.51-.846.822-1.595.822-1.351 0-2.43-1.106-2.43-2.49l-1.297-.355s-.318.559-.822 1.114c-.505.559-1.164 1.02-1.701 1.02a2.388 2.388 0 0 1-1.858-.892l6.079-4.797zm-.402.71a.704.704 0 0 0-.694.712c0 .392.312.711.694.711.383 0 .695-.32.695-.711a.704.704 0 0 0-.695-.711zm6.25 0a.704.704 0 0 0-.694.712c0 .392.312.711.694.711.383 0 .695-.32.695-.711a.704.704 0 0 0-.695-.711z"/></svg>