<svg xmlns="http://www.w3.org/2000/svg" width="40" height="34"><path d="M3.333 0C1.501 0 0 1.493 0 3.317v26.537c0 1.823 1.5 3.317 3.333 3.317h.834V34h4.166v-.83h23.334V34h4.166v-.83h.834c1.832 0 3.333-1.493 3.333-3.316V3.317C40 1.493 38.5 0 36.667 0H3.333zm0 1.659h33.334a1.65 1.65 0 0 1 1.666 1.658v26.537a1.65 1.65 0 0 1-1.666 1.658H3.333a1.65 1.65 0 0 1-1.666-1.658V3.317A1.65 1.65 0 0 1 3.333 1.66zm1.51 2.487a.83.83 0 0 0-.676.83v9.692a.846.846 0 0 0 0 .492v3.006a.845.845 0 0 0 0 .182v9.847c0 .457.374.83.833.83h30a.833.833 0 0 0 .833-.83V4.975A.833.833 0 0 0 35 4.147H4.844zm.99 1.659h28.334v21.56H5.833v-8.758l1.433-1.426a.826.826 0 0 0 0-1.192l-1.433-1.425v-8.76zm14.089 1.633a.978.978 0 0 0-.182.051 9.142 9.142 0 0 0-5.964 2.436.828.828 0 0 0-.469.467 9.054 9.054 0 0 0-2.448 5.779.837.837 0 0 0 0 .829 9.08 9.08 0 0 0 2.37 5.727.831.831 0 0 0 .6.596 9.16 9.16 0 0 0 5.937 2.358c.026.01.052.02.078.026h.338a.735.735 0 0 0 .078-.026 9.166 9.166 0 0 0 5.912-2.358c.3-.08.53-.32.599-.622a9.04 9.04 0 0 0 2.37-5.882.386.386 0 0 0 .026-.052v-.026a.621.621 0 0 0 0-.156v-.103a.862.862 0 0 0-.026-.156 9.054 9.054 0 0 0-2.5-6.012l-.026-.026c-.013-.013-.013-.039-.026-.052a.853.853 0 0 0-.26-.233 9.142 9.142 0 0 0-6.017-2.514.842.842 0 0 0-.39-.051zm-.755 1.71a.83.83 0 0 0 .833.816.83.83 0 0 0 .833-.816c1.459.155 2.77.745 3.855 1.607a.83.83 0 0 0-.29.832.836.836 0 0 0 1.461.334c.866 1.078 1.459 2.384 1.615 3.835h-.13a.834.834 0 0 0 .13 1.659c-.156 1.45-.749 2.756-1.615 3.835a.835.835 0 0 0-.65-.233h-.079a.828.828 0 0 0-.442 1.4c-1.084.86-2.396 1.45-3.855 1.606a.837.837 0 0 0-.27-.616.835.835 0 0 0-.641-.213.978.978 0 0 0-.104.026.832.832 0 0 0-.651.803c-1.459-.156-2.77-.745-3.855-1.607a.827.827 0 0 0 .157-.907.834.834 0 0 0-.781-.492h-.079a.84.84 0 0 0-.468.233c-.866-1.079-1.459-2.384-1.615-3.835a.83.83 0 0 0 0-1.659c.156-1.451.749-2.757 1.615-3.835a.836.836 0 1 0 1.462-.334.83.83 0 0 0-.29-.832c1.083-.862 2.395-1.452 3.854-1.607zM20 12.439c-2.292 0-4.167 1.866-4.167 4.146s1.875 4.147 4.167 4.147 4.167-1.866 4.167-4.147c0-2.28-1.875-4.146-4.167-4.146zm0 1.659c1.39 0 2.5 1.104 2.5 2.487a2.482 2.482 0 0 1-2.5 2.488c-1.39 0-2.5-1.104-2.5-2.488a2.482 2.482 0 0 1 2.5-2.487z"/></svg>