<?xml version="1.0" encoding="utf-8"?>
<!-- Generator: Adobe Illustrator 19.0.0, SVG Export Plug-In . SVG Version: 6.00 Build 0)  -->
<svg version="1.1" id="Слой_1" xmlns="http://www.w3.org/2000/svg" xmlns:xlink="http://www.w3.org/1999/xlink" x="0px" y="0px"
	 viewBox="-403 261 152 39" style="enable-background:new -403 261 152 39;" xml:space="preserve">
<style type="text/css">
	.st0{fill:#D64052;}
	.st1{enable-background:new    ;}
	.st2{fill:#FFFFFF;}
</style>
<g>
	<circle class="st0" cx="-383.5" cy="280.5" r="19.5"/>
	<path class="st0" d="M-384,261h113.5c10.8,0,19.5,8.7,19.5,19.5s-8.7,19.5-19.5,19.5H-384l11.3-31L-384,261z"/>
	<g class="st1">
		<path class="st2" d="M-361.3,286.6l1.7-2.3c1.2,1.3,3.1,2.4,5.5,2.4c2.5,0,3.5-1.2,3.5-2.4c0-3.6-10.1-1.4-10.1-7.8
			c0-2.9,2.5-5.1,6.3-5.1c2.7,0,4.9,0.9,6.5,2.4l-1.7,2.3c-1.4-1.4-3.2-2-5-2c-1.8,0-2.9,0.9-2.9,2.2c0,3.2,10.1,1.2,10.1,7.7
			c0,2.9-2,5.4-6.7,5.4C-357.4,289.3-359.7,288.2-361.3,286.6z"/>
		<path class="st2" d="M-340.4,280.3c0-5.3,4-9,9.1-9c3.5,0,5.7,1.8,7,3.9l-2.6,1.3c-0.8-1.4-2.5-2.5-4.4-2.5c-3.4,0-6,2.6-6,6.3
			c0,3.6,2.5,6.3,6,6.3c1.9,0,3.5-1.1,4.4-2.5l2.6,1.3c-1.3,2.1-3.5,3.9-7,3.9C-336.5,289.3-340.4,285.7-340.4,280.3z"/>
		<path class="st2" d="M-316.9,289v-17.3h8.5c3.2,0,4.9,2,4.9,4.4c0,2.2-1.4,3.6-3,4c1.8,0.3,3.4,2.1,3.4,4.3c0,2.7-1.8,4.7-5,4.7
			H-316.9z M-306.5,276.6c0-1.3-0.9-2.3-2.4-2.3h-4.9v4.5h4.9C-307.4,278.8-306.5,277.9-306.5,276.6z M-306.2,283.9
			c0-1.3-0.9-2.4-2.7-2.4h-5v4.8h5C-307.2,286.3-306.2,285.4-306.2,283.9z"/>
		<path class="st2" d="M-295.8,280.3c0-5.3,4-9,9.1-9c3.5,0,5.7,1.8,7,3.9l-2.6,1.3c-0.8-1.4-2.5-2.5-4.4-2.5c-3.4,0-6,2.6-6,6.3
			c0,3.6,2.5,6.3,6,6.3c1.9,0,3.5-1.1,4.4-2.5l2.6,1.3c-1.3,2.1-3.5,3.9-7,3.9C-291.8,289.3-295.8,285.7-295.8,280.3z"/>
	</g>
	<g>
		<path class="st2" d="M-382.7,289.9l9-8.9l0.2,2.8l-9,8.9L-382.7,289.9z M-381,283.7l9-8.9l0.2,2.8l-9,8.9L-381,283.7z
			 M-378.8,277.1l9-8.9l0.2,2.8l-9,8.9L-378.8,277.1z"/>
	</g>
</g>
</svg>
